<svg width="101" height="81" viewBox="0 0 101 81" fill="none" xmlns="http://www.w3.org/2000/svg">
<path d="M48.9508 53.446C48.8504 53.446 48.75 53.4319 48.6559 53.3967L17.0573 41.7609C16.6684 41.62 16.4112 41.2115 16.4112 40.7537V17.4891C16.4112 17.0313 16.6747 16.6298 17.0573 16.4819L48.6559 4.84604C48.8441 4.7756 49.0511 4.7756 49.2456 4.84604L80.8442 16.4819C81.2331 16.6227 81.4903 17.0313 81.4903 17.4891V24.5607C81.4903 25.1453 81.07 25.6173 80.5493 25.6173C80.0286 25.6173 79.6083 25.1453 79.6083 24.5607V18.2498L48.9508 6.96613L18.2932 18.2498V39.986L48.9508 51.2766L80.2545 39.7465C80.7501 39.5633 81.277 39.8662 81.4401 40.4226C81.6032 40.9791 81.3335 41.5707 80.8379 41.7539L49.2456 53.3897C49.1452 53.4249 49.0511 53.446 48.9508 53.446Z" fill="#99C7DE"/>
<path d="M48.9505 76.2036C48.8501 76.2036 48.7497 76.1895 48.6556 76.1543L17.0571 64.5185C16.6556 64.3706 16.3921 63.9409 16.4109 63.462C16.4297 62.99 16.7309 62.5886 17.1449 62.4829L32.0063 58.7076C32.5145 58.5738 33.0163 58.933 33.1292 59.5035C33.2422 60.074 32.9285 60.6375 32.4204 60.7643L20.8775 63.6944L48.9442 74.0272L79.6018 62.7365V40.7538C79.6018 40.1692 80.0221 39.6973 80.5428 39.6973C81.0635 39.6973 81.4838 40.1692 81.4838 40.7538V63.5113C81.4838 63.9691 81.2203 64.3706 80.8376 64.5185L49.2453 76.1543C49.145 76.1895 49.0509 76.2036 48.9505 76.2036Z" fill="#99C7DE"/>
<path d="M48.9505 76.2035C48.4298 76.2035 48.0095 75.7316 48.0095 75.147V18.1371C48.0095 17.5525 48.4298 17.0806 48.9505 17.0806C49.4712 17.0806 49.8915 17.5525 49.8915 18.1371V75.147C49.8915 75.7316 49.4712 76.2035 48.9505 76.2035Z" fill="#99C7DE"/>
<path d="M80.8251 36.3023C78.7486 36.3023 77.0611 34.4076 77.0611 32.0762C77.0611 29.7448 78.7486 27.8501 80.8251 27.8501C82.9015 27.8501 84.589 29.7448 84.589 32.0762C84.589 34.4076 82.9015 36.3023 80.8251 36.3023ZM80.8251 29.9631C79.79 29.9631 78.9431 30.914 78.9431 32.0762C78.9431 33.2384 79.79 34.1892 80.8251 34.1892C81.8602 34.1892 82.7071 33.2384 82.7071 32.0762C82.7071 30.914 81.8602 29.9631 80.8251 29.9631Z" fill="#99C7DE"/>
</svg>
