<svg width="120" height="86" viewBox="0 0 120 86" fill="none" xmlns="http://www.w3.org/2000/svg">
<path d="M8.89938 42.857C8.89938 42.2384 9.39876 41.739 10.0174 41.739C10.636 41.739 11.1354 42.2384 11.1354 42.857C11.1354 64.3825 28.6509 81.898 50.1764 81.898C71.7019 81.898 89.2174 64.3825 89.2174 42.857C89.2174 42.2384 89.7168 41.739 90.3354 41.739C90.954 41.739 91.4534 42.2384 91.4534 42.857C91.4534 65.6123 72.9391 84.134 50.1764 84.134C27.4137 84.134 8.89938 65.6123 8.89938 42.857Z" fill="#99C7DE"/>
<path d="M20.1615 48.3355C20.1615 47.769 20.5863 47.2845 21.1603 47.2249C21.7714 47.1578 22.323 47.605 22.3901 48.2237C23.8435 62.1914 35.5454 72.7231 49.6025 72.7231C63.3615 72.7231 75.0335 62.4448 76.7478 48.8125C76.8224 48.2013 77.3814 47.769 78 47.8436C78.6112 47.9181 79.0435 48.4846 78.9689 49.0957C77.113 63.8386 64.487 74.9591 49.6025 74.9591C34.3901 74.9591 21.7342 63.5628 20.1615 48.4622C20.1615 48.41 20.1615 48.3727 20.1615 48.3355Z" fill="#99C7DE"/>
<path d="M28.554 42.8571C28.554 20.0944 47.0683 1.58008 69.8311 1.58008C92.5938 1.58008 111.108 20.0944 111.108 42.8571C111.108 43.4757 110.609 43.9751 109.99 43.9751H45.9727C45.354 43.9751 44.8547 43.4757 44.8547 42.8571C44.8547 42.2385 45.354 41.7391 45.9727 41.7391H108.85C108.253 20.7279 90.9764 3.8161 69.8236 3.8161C48.2981 3.8161 30.7826 21.3316 30.7826 42.8571C30.7826 43.4757 30.2832 43.9751 29.6646 43.9751C29.0534 43.9751 28.554 43.4757 28.554 42.8571Z" fill="#99C7DE"/>
<path d="M34.2559 42.857C34.2559 40.9191 35.8286 39.3464 37.7664 39.3464C39.7043 39.3464 41.277 40.9191 41.277 42.857C41.277 44.7949 39.7043 46.3676 37.7664 46.3676C35.8286 46.3676 34.2559 44.7949 34.2559 42.857ZM39.0484 42.857C39.0484 42.1564 38.4745 41.5825 37.7739 41.5825C37.0733 41.5825 36.4994 42.1564 36.4994 42.857C36.4994 43.5576 37.0733 44.1315 37.7739 44.1315C38.4745 44.1315 39.0484 43.5576 39.0484 42.857Z" fill="#99C7DE"/>
<path d="M8.89938 42.857C8.89938 42.2384 9.39876 41.739 10.0174 41.739H29.6721C30.2907 41.739 30.7901 42.2384 30.7901 42.857C30.7901 43.4757 30.2907 43.975 29.6721 43.975H10.0174C9.39876 43.975 8.89938 43.4757 8.89938 42.857Z" fill="#99C7DE"/>
</svg>
