<svg width="124" height="89" viewBox="0 0 124 89" fill="none" xmlns="http://www.w3.org/2000/svg">
<path d="M62.1926 82.8722C61.8768 82.8722 61.5687 82.7413 61.3531 82.5102L13.7709 32.0091C13.4243 31.6394 13.355 31.0849 13.6092 30.6382L25.9245 9.19618C26.1324 8.83419 26.5098 8.61854 26.9257 8.61854H33.3953C34.0345 8.61854 34.5506 9.13457 34.5506 9.77382C34.5506 10.4131 34.0345 10.9291 33.3953 10.9291H27.5958L16.043 31.0464L62.1926 80.0225L107.942 31.0772L95.0872 10.9214H49.6462C49.007 10.9214 48.4909 10.4054 48.4909 9.76612C48.4909 9.12686 49.007 8.61084 49.6462 8.61084H95.7188C96.1116 8.61084 96.4813 8.81109 96.6892 9.14227L110.368 30.5843C110.653 31.031 110.599 31.6086 110.237 31.9937L63.0398 82.4871C62.8164 82.7413 62.5083 82.8722 62.1926 82.8722Z" fill="#99C7DE"/>
<path d="M14.6104 32.3789C14.079 32.3789 13.6015 32.0169 13.486 31.4778C13.3473 30.8539 13.7401 30.2378 14.3563 30.0991L71.3039 17.2832C71.9277 17.1446 72.5439 17.5374 72.6825 18.1535C72.8211 18.7774 72.4283 19.3935 71.8122 19.5322L14.8646 32.3481C14.7799 32.3635 14.6952 32.3789 14.6104 32.3789Z" fill="#99C7DE"/>
<path d="M109.39 32.3787C109.259 32.3787 109.128 32.3556 108.997 32.3094L49.2457 10.8597C48.645 10.644 48.3369 9.98166 48.5448 9.38091C48.7605 8.78017 49.4152 8.47209 50.0236 8.68004L109.775 30.122C110.375 30.3377 110.683 31 110.476 31.6008C110.306 32.0783 109.859 32.3787 109.39 32.3787Z" fill="#99C7DE"/>
<path d="M41.8365 14.9417C39.2872 14.9417 37.2154 12.8699 37.2154 10.3206C37.2154 7.77126 39.2872 5.69946 41.8365 5.69946C44.3859 5.69946 46.4577 7.77126 46.4577 10.3206C46.4577 12.8699 44.3859 14.9417 41.8365 14.9417ZM41.8365 8.01002C40.5657 8.01002 39.526 9.04977 39.526 10.3206C39.526 11.5914 40.5657 12.6311 41.8365 12.6311C43.1073 12.6311 44.1471 11.5914 44.1471 10.3206C44.1471 9.04977 43.1073 8.01002 41.8365 8.01002Z" fill="#99C7DE"/>
</svg>
