<svg width="118" height="84" viewBox="0 0 118 84" fill="none" xmlns="http://www.w3.org/2000/svg">
<path d="M62.8185 75.8265C45.8221 75.8265 31.4569 61.846 31.4569 45.3016C31.4569 44.6954 31.9479 44.206 32.5563 44.206H55.9217C56.5301 44.206 57.0211 44.6954 57.0211 45.3016C57.0211 45.9079 56.5301 46.3973 55.9217 46.3973H33.6776C34.2933 61.2689 47.3905 73.6352 62.8185 73.6352C81.6618 73.6352 106.984 49.8303 111.653 45.2797C107.079 40.5684 81.8891 15.7409 59.9821 17.2529C59.3884 17.3041 58.8534 16.8439 58.8094 16.2376C58.7655 15.6314 59.2272 15.1128 59.8282 15.0689C70.4189 14.3239 82.7612 19.0863 96.5328 29.2028C106.713 36.6825 113.932 44.4908 113.998 44.5639C114.394 44.9948 114.379 45.6522 113.976 46.0686C113.903 46.1416 106.566 53.5701 96.7014 60.8964C83.3549 70.8084 71.9507 75.8265 62.8185 75.8265Z" fill="#99C7DE"/>
<path d="M55.8191 75.8264C45.9247 75.8264 34.2933 70.801 21.2473 60.889C11.5948 53.5555 4.70534 46.1197 4.63937 46.0466C4.25826 45.6376 4.25093 45.0094 4.61739 44.5857C4.68335 44.5054 11.5728 36.6386 21.2327 29.0932C34.3079 18.8744 45.9687 14.0609 55.8997 14.784C71.6355 15.9235 87.9137 27.6543 87.9137 45.3089C87.9137 61.8532 73.2186 75.8264 55.8191 75.8264ZM6.94074 45.287C8.89031 47.3103 14.8416 53.2706 22.6032 59.1652C31.2956 65.7684 44.1144 73.6351 55.8191 73.6351C72.024 73.6351 85.7149 60.6626 85.7149 45.3016C85.7149 28.9252 70.4775 18.0344 55.7385 16.968C35.2901 15.4779 11.221 40.6195 6.94074 45.287Z" fill="#99C7DE"/>
<path d="M67.4066 49.4285C64.9806 49.4285 63.0091 47.4637 63.0091 45.0459C63.0091 42.6282 64.9806 40.6633 67.4066 40.6633C69.8325 40.6633 71.8041 42.6282 71.8041 45.0459C71.8041 47.4637 69.8325 49.4285 67.4066 49.4285ZM67.4066 42.8546C66.1973 42.8546 65.2078 43.8407 65.2078 45.0459C65.2078 46.2512 66.1973 47.2372 67.4066 47.2372C68.6159 47.2372 69.6053 46.2512 69.6053 45.0459C69.6053 43.8407 68.6232 42.8546 67.4066 42.8546Z" fill="#99C7DE"/>
</svg>
