<?xml version="1.0" encoding="utf-8"?>
<!-- Generator: Adobe Illustrator 27.6.1, SVG Export Plug-In . SVG Version: 6.00 Build 0)  -->
<svg version="1.1" id="Слой_1" xmlns="http://www.w3.org/2000/svg" xmlns:xlink="http://www.w3.org/1999/xlink" x="0px" y="0px"
	 viewBox="0 0 1366 825" style="enable-background:new 0 0 1366 825;" xml:space="preserve">
<style type="text/css">
	.st0{clip-path:url(#SVGID_00000074415489460303635230000012910851326542370476_);}
	.st1{fill:#15161E;}
	.st2{clip-path:url(#SVGID_00000067920957655091517720000018146487139244521135_);}
	.st3{opacity:0.1;}
	.st4{fill:none;stroke:#FFFFFF;stroke-miterlimit:10;}
	.st5{fill:#FFFFFF;stroke:#FFFFFF;stroke-miterlimit:10;}
	.st6{opacity:0.91;}
</style>
<g>
	<defs>
		<rect id="SVGID_1_" x="0" y="0" width="1366" height="825"/>
	</defs>
	<clipPath id="SVGID_00000005230533266985341780000010809158079935046333_">
		<use xlink:href="#SVGID_1_"  style="overflow:visible;"/>
	</clipPath>
	<g style="clip-path:url(#SVGID_00000005230533266985341780000010809158079935046333_);">
		<rect class="st1" width="1366" height="825"/>
		<g>
			<defs>
				
					<rect id="SVGID_00000057833455642285573930000009009537962126973852_" x="56" y="243" transform="matrix(0.5418 -0.8405 0.8405 0.5418 -408.6627 652.4041)" width="676" height="916"/>
			</defs>
			<clipPath id="SVGID_00000078762212371907478010000003352784754879977149_">
				<use xlink:href="#SVGID_00000057833455642285573930000009009537962126973852_"  style="overflow:visible;"/>
			</clipPath>
			<g style="clip-path:url(#SVGID_00000078762212371907478010000003352784754879977149_);">
				<g class="st3">
					<path class="st4" d="M28.8,799l98.5-25.6"/>
					<path class="st4" d="M194.9,779.5l-67.6-6.1"/>
					<path class="st4" d="M114,890.3L28.8,799"/>
					<path class="st4" d="M215.4,838L114,890.3"/>
					<path class="st4" d="M194.9,779.5l20.5,58.5"/>
					<path class="st4" d="M28.8,799l186.6,39"/>
					<path class="st4" d="M127.3,773.5l80.3-99.8"/>
					<path class="st4" d="M194.9,779.5l12.8-105.8"/>
					<path class="st4" d="M271.5,786l-63.9-112.3"/>
					<path class="st4" d="M194.9,779.5l76.6,6.4"/>
					<path class="st4" d="M207.7,673.7l119,80.2"/>
					<path class="st4" d="M341.7,795.4l-15-41.5"/>
					<path class="st4" d="M271.5,786l70.1,9.5"/>
					<path class="st4" d="M312.2,864.6L271.5,786"/>
					<path class="st4" d="M215.4,838l96.8,26.6"/>
					<path class="st4" d="M114,890.3l81.5,34.3"/>
					<path class="st4" d="M312.2,864.6l-116.7,60.1"/>
					<path class="st4" d="M215.4,838l-20,86.6"/>
					<path class="st4" d="M312.2,864.6L459,819"/>
					<path class="st4" d="M563,722.8L459,819"/>
					<path class="st4" d="M459.9,671.1L459,819"/>
					<path class="st4" d="M563,722.8l-103.1-51.7"/>
					<path class="st4" d="M326.7,753.9l133.2-82.8"/>
					<path class="st4" d="M341.7,795.4L459,819"/>
					<path class="st4" d="M326.7,753.9L459,819"/>
					<path class="st4" d="M312.2,864.6l29.4-69.1"/>
					<path class="st4" d="M563,722.8l12.5,180.1"/>
					<path class="st4" d="M459,819l116.5,83.9"/>
					<path class="st4" d="M459.9,671.1l63.7-103.3"/>
					<path class="st4" d="M563,722.8l-39.4-154.9"/>
					<path class="st4" d="M604.3,601.1l-80.7-33.2"/>
					<path class="st4" d="M563,722.8l41.3-121.7"/>
					<path class="st4" d="M575.5,902.9l28.8-301.8"/>
					<path class="st4" d="M675.9,688.3l-71.6-87.2"/>
					<path class="st4" d="M575.5,902.9l100.5-214.6"/>
					<path class="st4" d="M312.2,864.6l139.1,60.1"/>
					<path class="st4" d="M459,819l-7.7,105.6"/>
					<path class="st4" d="M575.5,902.9l-124.1,21.7"/>
					<path class="st4" d="M312.2,864.6l24.5,44.9"/>
					<path class="st4" d="M195.5,924.6l141.3-15.1"/>
					<path class="st4" d="M304.7,982.3l32-72.8"/>
					<path class="st4" d="M195.5,924.6l109.3,57.6"/>
					<path class="st4" d="M451.3,924.6l-146.6,57.6"/>
					<path class="st4" d="M336.7,909.5l114.6,15.1"/>
					<path class="st4" d="M575.5,902.9l131.1-7.6"/>
					<path class="st4" d="M625.7,795.6l80.9,99.7"/>
					<path class="st4" d="M587.8,772.8l37.9,22.8"/>
					<path class="st4" d="M675.9,688.3l42.2,61.7"/>
					<path class="st4" d="M706.5,895.3L718.1,750"/>
					<path class="st4" d="M625.7,795.6l92.4-45.6"/>
					<path class="st4" d="M675.9,688.3l79.8-15.3"/>
					<path class="st4" d="M860.1,622.2L755.8,673"/>
					<path class="st4" d="M491.5,986L557,1020"/>
					<path class="st4" d="M451.3,924.6l40.2,61.4"/>
					<path class="st4" d="M575.5,902.9L491.5,986"/>
					<path class="st4" d="M557,1020l18.5-117.1"/>
					<path class="st4" d="M718.1,750l37.7-76.9"/>
					<path class="st4" d="M860.1,622.2L763.9,774"/>
					<path class="st4" d="M706.5,895.3L763.9,774"/>
					<path class="st4" d="M718.1,750l45.8,24"/>
					<path class="st4" d="M706.5,895.3l126.3-56.6"/>
					<path class="st4" d="M763.9,774l68.9,64.7"/>
					<path class="st4" d="M860.1,622.2l15.3,79.8"/>
					<path class="st4" d="M763.9,774l111.4-72"/>
					<path class="st4" d="M832.8,838.6l-5-61.2"/>
					<path class="st4" d="M875.4,702l-47.5,75.5"/>
					<path class="st4" d="M604.3,601.1l64.7,18.7"/>
					<path class="st4" d="M755.8,673l-46-36.1"/>
					<path class="st4" d="M669,619.8l40.8,17.2"/>
					<path class="st4" d="M675.9,688.3l33.8-51.3"/>
					<path class="st5" d="M210.4,671.9c-1.6-1.1-3.8-0.6-4.9,1.1c-1.1,1.6-0.6,3.8,1.1,4.9c1.6,1.1,3.8,0.6,4.9-1.1
						C212.5,675.1,212,672.9,210.4,671.9z"/>
					<path class="st5" d="M129.2,770.5c-1.6-1.1-3.8-0.6-4.9,1.1c-1.1,1.6-0.6,3.8,1.1,4.9c1.6,1.1,3.8,0.6,4.9-1.1
						C131.3,773.8,130.9,771.6,129.2,770.5z"/>
					<path class="st5" d="M196.8,776.6c-1.6-1.1-3.8-0.6-4.9,1c-1.1,1.6-0.6,3.8,1.1,4.9c1.6,1.1,3.8,0.6,4.9-1
						C198.9,779.8,198.5,777.6,196.8,776.6z"/>
					<path class="st5" d="M32.7,796.4c-1.6-1.1-3.8-0.6-4.9,1.1c-1.1,1.6-0.6,3.8,1.1,4.9c1.6,1.1,3.8,0.6,4.9-1.1
						C34.8,799.6,34.3,797.4,32.7,796.4z"/>
					<path class="st5" d="M115.9,887.3c-1.6-1.1-3.8-0.6-4.9,1.1c-1.1,1.6-0.6,3.8,1.1,4.9c1.6,1.1,3.8,0.6,4.9-1.1
						C118,890.6,117.5,888.4,115.9,887.3z"/>
					<path class="st5" d="M217.3,835c-1.6-1.1-3.8-0.6-4.9,1.1c-1.1,1.6-0.6,3.8,1.1,4.9c1.6,1.1,3.8,0.6,4.9-1.1
						C219.4,838.3,219,836.1,217.3,835z"/>
					<path class="st5" d="M197.4,921.7c-1.6-1.1-3.8-0.6-4.9,1.1c-1.1,1.6-0.6,3.8,1.1,4.9c1.6,1.1,3.8,0.6,4.9-1.1
						C199.5,924.9,199,922.7,197.4,921.7z"/>
					<path class="st5" d="M273.4,783c-1.6-1.1-3.8-0.6-4.9,1.1c-1.1,1.6-0.6,3.8,1.1,4.9s3.8,0.6,4.9-1.1
						C275.6,786.2,275.1,784.1,273.4,783z"/>
					<path class="st5" d="M338.6,906.5c-1.6-1.1-3.8-0.6-4.9,1.1c-1.1,1.6-0.6,3.8,1.1,4.9c1.6,1.1,3.8,0.6,4.9-1.1
						C340.8,909.8,340.3,907.6,338.6,906.5z"/>
					<path class="st5" d="M306.7,979.3c-1.6-1.1-3.8-0.6-4.9,1.1c-1.1,1.6-0.6,3.8,1.1,4.9c1.6,1.1,3.8,0.6,4.9-1.1
						C308.8,982.5,308.3,980.4,306.7,979.3z"/>
					<path class="st5" d="M453.3,921.7c-1.6-1.1-3.8-0.6-4.9,1.1c-1.1,1.6-0.6,3.8,1.1,4.9c1.6,1.1,3.8,0.6,4.9-1.1
						C455.4,924.9,454.9,922.7,453.3,921.7z"/>
					<path class="st5" d="M493.5,983.1c-1.6-1.1-3.8-0.6-4.9,1c-1.1,1.6-0.6,3.8,1.1,4.9c1.6,1.1,3.8,0.6,4.9-1.1
						C495.6,986.3,495.1,984.1,493.5,983.1z"/>
					<path class="st5" d="M460.9,816.1c-1.6-1.1-3.8-0.6-4.9,1.1c-1.1,1.6-0.6,3.8,1.1,4.9c1.6,1.1,3.8,0.6,4.9-1.1
						C463,819.3,462.6,817.1,460.9,816.1z"/>
					<path class="st5" d="M577.4,899.9c-1.6-1.1-3.8-0.6-4.9,1.1c-1.1,1.6-0.6,3.8,1.1,4.9c1.6,1.1,3.8,0.6,4.9-1.1
						C579.5,903.2,579,901,577.4,899.9z"/>
					<path class="st5" d="M564.9,719.8c-1.6-1.1-3.8-0.6-4.9,1.1c-1.1,1.6-0.6,3.8,1.1,4.9c1.6,1.1,3.8,0.6,4.9-1.1
						C567,723.1,566.5,720.9,564.9,719.8z"/>
					<path class="st5" d="M589.7,769.8c-1.6-1.1-3.8-0.6-4.9,1.1c-1.1,1.6-0.6,3.8,1.1,4.9c1.6,1.1,3.8,0.6,4.9-1.1
						C591.8,773.1,591.3,770.9,589.7,769.8z"/>
					<path class="st5" d="M627.6,792.6c-1.6-1.1-3.8-0.6-4.9,1.1c-1.1,1.6-0.6,3.8,1.1,4.9c1.6,1.1,3.8,0.6,4.9-1.1
						C629.7,795.9,629.2,793.7,627.6,792.6z"/>
					<path class="st5" d="M707.6,891.2c-1.6-1.1-3.8-0.6-4.9,1.1c-1.1,1.6-0.6,3.8,1.1,4.9c1.6,1.1,3.8,0.6,4.9-1.1
						C709.7,894.4,709.2,892.3,707.6,891.2z"/>
					<path class="st5" d="M833.9,834.5c-1.6-1.1-3.8-0.6-4.9,1c-1.1,1.6-0.6,3.8,1.1,4.9c1.6,1.1,3.8,0.6,4.9-1
						C836,837.8,835.6,835.6,833.9,834.5z"/>
					<path class="st5" d="M765.8,771c-1.6-1.1-3.8-0.6-4.9,1.1c-1.1,1.6-0.6,3.8,1.1,4.9c1.6,1.1,3.8,0.6,4.9-1.1
						C767.9,774.2,767.5,772.1,765.8,771z"/>
					<path class="st5" d="M757.7,670.1c-1.6-1.1-3.8-0.6-4.9,1c-1.1,1.6-0.6,3.8,1.1,4.9c1.6,1.1,3.8,0.6,4.9-1.1
						C759.8,673.3,759.3,671.1,757.7,670.1z"/>
					<path class="st5" d="M720,747c-1.6-1.1-3.8-0.6-4.9,1c-1.1,1.6-0.6,3.8,1.1,4.9c1.6,1.1,3.8,0.6,4.9-1
						C722.1,750.3,721.7,748.1,720,747z"/>
					<path class="st5" d="M677.8,685.3c-1.6-1.1-3.8-0.6-4.9,1.1c-1.1,1.6-0.6,3.8,1.1,4.9c1.6,1.1,3.8,0.6,4.9-1.1
						C679.9,688.6,679.5,686.4,677.8,685.3z"/>
					<path class="st5" d="M711.7,634c-1.6-1.1-3.8-0.6-4.9,1c-1.1,1.6-0.6,3.8,1.1,4.9c1.6,1.1,3.8,0.6,4.9-1
						C713.8,637.2,713.3,635.1,711.7,634z"/>
					<path class="st5" d="M876.1,699.9c-1.6-1.1-3.8-0.6-4.9,1.1c-1.1,1.6-0.6,3.8,1.1,4.9c1.6,1.1,3.8,0.6,4.9-1.1
						C878.2,703.1,877.8,700.9,876.1,699.9z"/>
					<path class="st5" d="M829.8,774.5c-1.6-1.1-3.8-0.6-4.9,1c-1.1,1.6-0.6,3.8,1.1,4.9c1.6,1.1,3.8,0.6,4.9-1
						C831.9,777.7,831.4,775.6,829.8,774.5z"/>
					<path class="st5" d="M862,619.2c-1.6-1.1-3.8-0.6-4.9,1.1c-1.1,1.6-0.6,3.8,1.1,4.9c1.6,1.1,3.8,0.6,4.9-1.1
						C864.1,622.4,863.6,620.3,862,619.2z"/>
					<path class="st5" d="M461.8,668.2c-1.6-1.1-3.8-0.6-4.9,1.1c-1.1,1.6-0.6,3.8,1.1,4.9c1.6,1.1,3.8,0.6,4.9-1.1
						C463.9,671.4,463.4,669.2,461.8,668.2z"/>
					<path class="st5" d="M328.6,751c-1.6-1.1-3.8-0.6-4.9,1.1c-1.1,1.6-0.6,3.8,1.1,4.9c1.6,1.1,3.8,0.6,4.9-1.1
						C330.7,754.2,330.2,752,328.6,751z"/>
					<path class="st5" d="M343.6,792.5c-1.6-1.1-3.8-0.6-4.9,1.1c-1.1,1.6-0.6,3.8,1.1,4.9c1.6,1.1,3.8,0.6,4.9-1.1
						C345.7,795.7,345.2,793.5,343.6,792.5z"/>
					<path class="st5" d="M314.1,861.6c-1.6-1.1-3.8-0.6-4.9,1c-1.1,1.6-0.6,3.8,1.1,4.9c1.6,1.1,3.8,0.6,4.9-1
						C316.2,864.8,315.7,862.7,314.1,861.6z"/>
					<path class="st5" d="M526.4,566c-1.6-1.1-3.8-0.6-4.9,1.1c-1.1,1.6-0.6,3.8,1.1,4.9c1.6,1.1,3.8,0.6,4.9-1.1
						C528.5,569.3,528,567.1,526.4,566z"/>
					<path class="st4" d="M304.7,982.3l186.8,3.7"/>
					<path class="st4" d="M563,722.8l24.8,50"/>
				</g>
				<g class="st6">
					<path class="st4" d="M709.2,903.3l-100.8-14.4"/>
					<path class="st4" d="M548.5,857.2l60,31.7"/>
					<path class="st4" d="M666,786.3l43.3,117"/>
					<path class="st4" d="M552.1,795.4l113.8-9.1"/>
					<path class="st4" d="M548.5,857.2l3.6-61.8"/>
					<path class="st4" d="M709.2,903.3l-157.1-108"/>
					<path class="st4" d="M608.5,888.9l-112.6,61"/>
					<path class="st4" d="M548.5,857.2l-52.6,92.7"/>
					<path class="st4" d="M480.3,821.7l15.6,128.2"/>
					<path class="st4" d="M548.5,857.2l-68.2-35.5"/>
					<path class="st4" d="M495.8,949.9L417,830"/>
					<path class="st4" d="M419.2,785.9L417,830"/>
					<path class="st4" d="M480.3,821.7l-61-35.8"/>
					<path class="st4" d="M473.1,733.6l7.2,88.2"/>
					<path class="st4" d="M552.1,795.4l-79-61.8"/>
					<path class="st4" d="M666,786.3L604,723.2"/>
					<path class="st4" d="M473.1,733.6L604,723.2"/>
					<path class="st4" d="M552.1,795.4l51.9-72.2"/>
					<path class="st4" d="M473.1,733.6l-153-14.7"/>
					<path class="st4" d="M186.9,767.5L320,718.9"/>
					<path class="st4" d="M262.1,854.9L320,718.9"/>
					<path class="st4" d="M186.9,767.5l75.2,87.5"/>
					<path class="st4" d="M417,830l-154.9,24.9"/>
					<path class="st4" d="M419.2,785.9L320,718.9"/>
					<path class="st4" d="M417,830l-97-111.1"/>
					<path class="st4" d="M473.1,733.6l-53.8,52.4"/>
					<path class="st4" d="M186.9,767.5L245,596.6"/>
					<path class="st4" d="M320,718.9L245,596.6"/>
					<path class="st4" d="M262.1,854.9l-98.7,70.6"/>
					<path class="st4" d="M186.9,767.5l-23.5,158.1"/>
					<path class="st4" d="M101.8,863.8l61.6,61.8"/>
					<path class="st4" d="M186.9,767.5l-85.1,96.3"/>
					<path class="st4" d="M245,596.6L101.8,863.8"/>
					<path class="st4" d="M69.4,755.7l32.4,108.1"/>
					<path class="st4" d="M245,596.6L69.4,755.7"/>
					<path class="st4" d="M473.1,733.6L367.9,624.5"/>
					<path class="st4" d="M320,718.9l47.8-94.4"/>
					<path class="st4" d="M245,596.6l122.9,27.9"/>
					<path class="st4" d="M473.1,733.6l-5.3-50.9"/>
					<path class="st4" d="M604,723.2l-136.2-40.6"/>
					<path class="st4" d="M525.4,627.9l-57.6,54.8"/>
					<path class="st4" d="M604,723.2l-78.6-95.3"/>
					<path class="st4" d="M367.9,624.5l157.5,3.4"/>
					<path class="st4" d="M467.8,682.6l-99.9-58.2"/>
					<path class="st4" d="M245,596.6L121.1,553"/>
					<path class="st4" d="M157.2,676.1L121.1,553"/>
					<path class="st4" d="M183.4,711.8l-26.2-35.6"/>
					<path class="st4" d="M69.4,755.7l-15.1-73.2"/>
					<path class="st4" d="M121.1,553L54.3,682.5"/>
					<path class="st4" d="M157.2,676.1l-102.9,6.4"/>
					<path class="st4" d="M69.4,755.7L-10.1,739"/>
					<path class="st4" d="M354.5,552.3l-47.3-56.6"/>
					<path class="st4" d="M367.9,624.5l-13.4-72.1"/>
					<path class="st4" d="M245,596.6l109.5-44.3"/>
					<path class="st4" d="M307.2,495.7L245,596.6"/>
					<path class="st4" d="M54.3,682.5L-10.1,739"/>
					<path class="st4" d="M-126,745.6L21.3,642.8"/>
					<path class="st4" d="M121.1,553l-99.8,89.8"/>
					<path class="st4" d="M54.3,682.5l-33-39.8"/>
					<path class="st4" d="M121.1,553l-138.4,3.5"/>
					<path class="st4" d="M21.3,642.8l-38.6-86.3"/>
					<path class="st4" d="M21.3,642.8l-130.6,23.4"/>
					<path class="st4" d="M101.8,863.8l-52.5-42.3"/>
					<path class="st4" d="M-10.1,739l28.5,51"/>
					<path class="st4" d="M49.3,821.6l-31-31.6"/>
					<path class="st4" d="M69.4,755.7L18.4,790"/>
					<path class="st5" d="M497.4,945.6c-1.6-1.1-3.8-0.6-4.9,1.1c-1.1,1.6-0.6,3.8,1.1,4.9c1.6,1.1,3.8,0.6,4.9-1.1
						C499.5,948.8,499,946.6,497.4,945.6z"/>
					<path class="st5" d="M610.4,885.9c-1.6-1.1-3.8-0.6-4.9,1.1c-1.1,1.6-0.6,3.8,1.1,4.9c1.6,1.1,3.8,0.6,4.9-1.1
						C612.5,889.2,612,887,610.4,885.9z"/>
					<path class="st5" d="M550.4,854.3c-1.6-1.1-3.8-0.6-4.9,1.1c-1.1,1.6-0.6,3.8,1.1,4.9c1.6,1.1,3.8,0.6,4.9-1.1
						C552.5,857.5,552,855.3,550.4,854.3z"/>
					<path class="st5" d="M709.5,899.4c-1.6-1.1-3.8-0.6-4.9,1.1c-1.1,1.6-0.6,3.8,1.1,4.9c1.6,1.1,3.8,0.6,4.9-1.1
						C711.6,902.6,711.1,900.4,709.5,899.4z"/>
					<path class="st5" d="M667.9,783.4c-1.6-1.1-3.8-0.6-4.9,1.1c-1.1,1.6-0.6,3.8,1.1,4.9c1.6,1.1,3.8,0.6,4.9-1.1
						C670,786.6,669.5,784.4,667.9,783.4z"/>
					<path class="st5" d="M554,792.4c-1.6-1.1-3.8-0.6-4.9,1c-1.1,1.6-0.6,3.8,1.1,4.9c1.6,1.1,3.8,0.6,4.9-1
						C556.1,795.7,555.7,793.5,554,792.4z"/>
					<path class="st5" d="M605.9,720.2c-1.6-1.1-3.8-0.6-4.9,1.1c-1.1,1.6-0.6,3.8,1.1,4.9c1.6,1.1,3.8,0.6,4.9-1.1
						C608,723.5,607.5,721.3,605.9,720.2z"/>
					<path class="st5" d="M482.2,818.8c-1.6-1.1-3.8-0.6-4.9,1.1c-1.1,1.6-0.6,3.8,1.1,4.9c1.6,1.1,3.8,0.6,4.9-1.1
						C484.3,822,483.8,819.8,482.2,818.8z"/>
					<path class="st5" d="M469.7,679.7c-1.6-1.1-3.8-0.6-4.9,1.1c-1.1,1.6-0.6,3.8,1.1,4.9c1.6,1.1,3.8,0.6,4.9-1
						C471.8,682.9,471.4,680.7,469.7,679.7z"/>
					<path class="st5" d="M527.3,624.9c-1.6-1.1-3.8-0.6-4.9,1.1c-1.1,1.6-0.6,3.8,1.1,4.9c1.6,1.1,3.8,0.6,4.9-1.1
						C529.4,628.1,529,626,527.3,624.9z"/>
					<path class="st5" d="M369.8,621.5c-1.6-1.1-3.8-0.6-4.9,1.1c-1.1,1.6-0.6,3.8,1.1,4.9c1.6,1.1,3.8,0.6,4.9-1.1
						C371.9,624.7,371.4,622.5,369.8,621.5z"/>
					<path class="st5" d="M356.4,549.3c-1.6-1.1-3.8-0.6-4.9,1.1c-1.1,1.6-0.6,3.8,1.1,4.9c1.6,1.1,3.8,0.6,4.9-1.1
						C358.5,552.6,358,550.4,356.4,549.3z"/>
					<path class="st5" d="M321.9,715.9c-1.6-1.1-3.8-0.6-4.9,1.1c-1.1,1.6-0.6,3.8,1.1,4.9c1.6,1.1,3.8,0.6,4.9-1.1
						C324.1,719.2,323.6,717,321.9,715.9z"/>
					<path class="st5" d="M246.9,593.6c-1.6-1.1-3.8-0.6-4.9,1.1c-1.1,1.6-0.6,3.8,1.1,4.9c1.6,1.1,3.8,0.6,4.9-1
						C249,596.9,248.5,594.7,246.9,593.6z"/>
					<path class="st5" d="M188.8,764.5c-1.6-1.1-3.8-0.6-4.9,1.1c-1.1,1.6-0.6,3.8,1.1,4.9c1.6,1.1,3.8,0.6,4.9-1.1
						C190.9,767.8,190.5,765.6,188.8,764.5z"/>
					<path class="st5" d="M185.3,708.8c-1.6-1.1-3.8-0.6-4.9,1.1c-1.1,1.6-0.6,3.8,1.1,4.9c1.6,1.1,3.8,0.6,4.9-1.1
						C187.4,712.1,186.9,709.9,185.3,708.8z"/>
					<path class="st5" d="M159.1,673.2c-1.6-1.1-3.8-0.6-4.9,1.1c-1.1,1.6-0.6,3.8,1.1,4.9c1.6,1.1,3.8,0.6,4.9-1
						C161.2,676.4,160.7,674.2,159.1,673.2z"/>
					<path class="st5" d="M123.3,551.4c-1.6-1.1-3.8-0.6-4.9,1.1c-1.1,1.6-0.6,3.8,1.1,4.9c1.6,1.1,3.8,0.6,4.9-1.1
						C125.4,554.7,125,552.5,123.3,551.4z"/>
					<path class="st5" d="M23.2,639.8c-1.6-1.1-3.8-0.6-4.9,1.1c-1.1,1.6-0.6,3.8,1.1,4.9s3.8,0.6,4.9-1.1
						C25.3,643,24.9,640.9,23.2,639.8z"/>
					<path class="st5" d="M56.2,679.6c-1.6-1.1-3.8-0.6-4.9,1.1c-1.1,1.6-0.6,3.8,1.1,4.9c1.6,1.1,3.8,0.6,4.9-1.1
						C58.3,682.8,57.8,680.6,56.2,679.6z"/>
					<path class="st5" d="M71.3,752.7c-1.6-1.1-3.8-0.6-4.9,1.1c-1.1,1.6-0.6,3.8,1.1,4.9c1.6,1.1,3.8,0.6,4.9-1.1
						C73.4,756,73,753.8,71.3,752.7z"/>
					<path class="st5" d="M20.3,787c-1.6-1.1-3.8-0.6-4.9,1.1c-1.1,1.6-0.6,3.8,1.1,4.9s3.8,0.6,4.9-1.1
						C22.4,790.3,21.9,788.1,20.3,787z"/>
					<path class="st5" d="M264,852c-1.6-1.1-3.8-0.6-4.9,1.1c-1.1,1.6-0.6,3.8,1.1,4.9c1.6,1.1,3.8,0.6,4.9-1.1
						C266.1,855.2,265.7,853,264,852z"/>
					<path class="st5" d="M418.9,827c-1.6-1.1-3.8-0.6-4.9,1.1c-1.1,1.6-0.6,3.8,1.1,4.9c1.6,1.1,3.8,0.6,4.9-1.1
						C421,830.3,420.5,828.1,418.9,827z"/>
					<path class="st5" d="M421.1,783c-1.6-1.1-3.8-0.6-4.9,1.1c-1.1,1.6-0.6,3.8,1.1,4.9c1.6,1.1,3.8,0.6,4.9-1.1
						C423.2,786.2,422.8,784,421.1,783z"/>
					<path class="st5" d="M475,730.6c-1.6-1.1-3.8-0.6-4.9,1.1c-1.1,1.6-0.6,3.8,1.1,4.9c1.6,1.1,3.8,0.6,4.9-1.1
						C477.1,733.8,476.6,731.6,475,730.6z"/>
					<path class="st5" d="M165,921.2c-1.6-1.1-3.8-0.6-4.9,1.1c-1.1,1.6-0.6,3.8,1.1,4.9c1.6,1.1,3.8,0.6,4.9-1.1
						C167.1,924.5,166.6,922.3,165,921.2z"/>
					<path class="st4" d="M525.4,627.9l-170.9-75.6"/>
					<path class="st4" d="M186.9,767.5l-3.5-55.7"/>
				</g>
			</g>
		</g>
	</g>
</g>
</svg>
