<?xml version="1.0" encoding="utf-8"?>
<!-- Generator: Adobe Illustrator 27.6.1, SVG Export Plug-In . SVG Version: 6.00 Build 0)  -->
<svg version="1.1" id="Слой_1" xmlns="http://www.w3.org/2000/svg" xmlns:xlink="http://www.w3.org/1999/xlink" x="0px" y="0px"
	 viewBox="0 0 1366 768" style="enable-background:new 0 0 1366 768;" xml:space="preserve">
<style type="text/css">
	.st0{fill:url(#SVGID_1_);}
	.st1{clip-path:url(#SVGID_00000116947055015381532340000007735639728963105945_);}
	.st2{opacity:0.1;}
	.st3{fill:none;stroke:#FFFFFF;stroke-miterlimit:10;}
	.st4{fill:#FFFFFF;stroke:#FFFFFF;stroke-miterlimit:10;}
	.st5{opacity:0.91;}
</style>
<linearGradient id="SVGID_1_" gradientUnits="userSpaceOnUse" x1="1347.2609" y1="182.7707" x2="26.7608" y2="916.7705" gradientTransform="matrix(1 0 0 -1 0 936)">
	<stop  offset="0.2964" style="stop-color:#15161E"/>
	<stop  offset="0.8095" style="stop-color:#2A2B34;stop-opacity:0.93"/>
</linearGradient>
<rect class="st0" width="1366" height="768"/>
<g>
	<defs>
		<rect id="SVGID_00000147204371210692735740000012127175948547998605_" width="1366" height="768"/>
	</defs>
	<clipPath id="SVGID_00000134246573480938589870000006865280551288727448_">
		<use xlink:href="#SVGID_00000147204371210692735740000012127175948547998605_"  style="overflow:visible;"/>
	</clipPath>
	<g style="clip-path:url(#SVGID_00000134246573480938589870000006865280551288727448_);">
		<g class="st2">
			<path class="st3" d="M1331.6,572.5l42.6-22.4"/>
			<path class="st3" d="M1337.3,475.3l85.9,21.7"/>
			<path class="st3" d="M1296.8,545.5l40.4-70.2"/>
			<path class="st3" d="M1331.6,572.5l-34.7-27"/>
			<path class="st3" d="M1423.1,497l-126.3,48.5"/>
			<path class="st3" d="M1374.2,550.2l-9.6,90.5"/>
			<path class="st3" d="M1331.6,572.5l33.1,68.1"/>
			<path class="st3" d="M1283.4,598.2l81.2,42.4"/>
			<path class="st3" d="M1331.6,572.5l-48.2,25.6"/>
			<path class="st3" d="M1364.6,640.6l-101.8-2.1"/>
			<path class="st3" d="M1237.9,619.5l24.9,19"/>
			<path class="st3" d="M1283.4,598.2l-45.5,21.3"/>
			<path class="st3" d="M1228.9,566.9l54.5,31.3"/>
			<path class="st3" d="M1296.8,545.5l-67.9,21.4"/>
			<path class="st3" d="M1337.3,475.3l-61.8,10.9"/>
			<path class="st3" d="M1228.9,566.9l46.5-80.8"/>
			<path class="st3" d="M1296.8,545.5l-21.4-59.4"/>
			<path class="st3" d="M1228.9,566.9l-70.1,83.7"/>
			<path class="st3" d="M1133.8,748l25-97.4"/>
			<path class="st3" d="M1215.2,739.2l-56.3-88.6"/>
			<path class="st3" d="M1133.8,748l81.4-8.8"/>
			<path class="st3" d="M1262.8,638.5l-47.6,100.7"/>
			<path class="st3" d="M1237.9,619.5l-79.1,31.1"/>
			<path class="st3" d="M1262.8,638.5l-104,12.1"/>
			<path class="st3" d="M1228.9,566.9l9,52.6"/>
			<path class="st3" d="M1133.8,748l-76.7-102.7"/>
			<path class="st3" d="M1158.8,650.6l-101.7-5.3"/>
			<path class="st3" d="M1215.2,739.2l1.7,86.2"/>
			<path class="st3" d="M1133.8,748l83.1,77.3"/>
			<path class="st3" d="M1156,836.5l60.9-11.2"/>
			<path class="st3" d="M1133.8,748l22.2,88.5"/>
			<path class="st3" d="M1057.2,645.3l98.8,191.2"/>
			<path class="st3" d="M1079.7,812l76.3,24.5"/>
			<path class="st3" d="M1057.2,645.3l22.6,166.7"/>
			<path class="st3" d="M1228.9,566.9l-106.1,17.7"/>
			<path class="st3" d="M1158.8,650.6l-36-66"/>
			<path class="st3" d="M1057.2,645.3l65.7-60.7"/>
			<path class="st3" d="M1228.9,566.9l-31.9-17.4"/>
			<path class="st3" d="M1275.4,486.1l-78.4,63.4"/>
			<path class="st3" d="M1188.1,493.8l8.9,55.7"/>
			<path class="st3" d="M1275.4,486.1l-87.3,7.6"/>
			<path class="st3" d="M1122.8,584.6l65.3-90.8"/>
			<path class="st3" d="M1197,549.5l-74.2,35.1"/>
			<path class="st3" d="M1057.2,645.3l-75.3,55"/>
			<path class="st3" d="M1068.4,728.7l-86.5-28.4"/>
			<path class="st3" d="M1099.8,727.7l-31.4,1"/>
			<path class="st3" d="M1079.7,812l-48.9-20.6"/>
			<path class="st3" d="M981.9,700.3l49,91.2"/>
			<path class="st3" d="M1068.4,728.7l-37.6,62.8"/>
			<path class="st3" d="M1079.7,812l-41.8,39.8"/>
			<path class="st3" d="M995.3,922.3l42.6-70.5"/>
			<path class="st3" d="M1075.2,563.4l-52.1,4.9"/>
			<path class="st3" d="M1122.8,584.6l-47.6-21.2"/>
			<path class="st3" d="M1057.2,645.3l18.1-81.9"/>
			<path class="st3" d="M1023.2,568.3l34,77"/>
			<path class="st3" d="M1030.8,791.4l7.1,60.4"/>
			<path class="st3" d="M995.3,922.3l-1-127.6"/>
			<path class="st3" d="M981.9,700.3l12.4,94.5"/>
			<path class="st3" d="M1030.8,791.4l-36.5,3.3"/>
			<path class="st3" d="M981.9,700.3l-53.5,82.4"/>
			<path class="st3" d="M994.3,794.8l-66-12.1"/>
			<path class="st3" d="M995.3,922.3l-39.8-41.8"/>
			<path class="st3" d="M994.3,794.8l-38.8,85.8"/>
			<path class="st3" d="M928.3,782.7l26.5,34.6"/>
			<path class="st3" d="M955.5,880.6l-0.7-63.3"/>
			<path class="st3" d="M1156,836.5l-45.8,13.7"/>
			<path class="st3" d="M1038,851.8l41.3,3.8"/>
			<path class="st3" d="M1110.2,850.2l-30.9,5.4"/>
			<path class="st3" d="M1079.7,812l-0.4,43.6"/>
			<path class="st4" d="M1363.7,642.8c1.4,0,2.5-1.1,2.5-2.5s-1.1-2.5-2.5-2.5s-2.5,1.1-2.5,2.5S1362.3,642.8,1363.7,642.8z"/>
			<path class="st4" d="M1331.6,575c1.4,0,2.5-1.1,2.5-2.5c0-1.4-1.1-2.5-2.5-2.5s-2.5,1.1-2.5,2.5
				C1329.1,573.9,1330.2,575,1331.6,575z"/>
			<path class="st4" d="M1337.3,477.8c1.4,0,2.5-1.1,2.5-2.5c0-1.4-1.1-2.5-2.5-2.5s-2.5,1.1-2.5,2.5
				C1334.8,476.7,1335.9,477.8,1337.3,477.8z"/>
			<path class="st4" d="M1296.8,548c1.4,0,2.5-1.1,2.5-2.5c0-1.4-1.1-2.5-2.5-2.5s-2.5,1.1-2.5,2.5
				C1294.3,546.9,1295.5,548,1296.8,548z"/>
			<path class="st4" d="M1275.4,488.6c1.4,0,2.5-1.1,2.5-2.5c0-1.4-1.1-2.5-2.5-2.5c-1.4,0-2.5,1.1-2.5,2.5
				C1272.9,487.5,1274.1,488.6,1275.4,488.6z"/>
			<path class="st4" d="M1283.4,600.7c1.4,0,2.5-1.1,2.5-2.5s-1.1-2.5-2.5-2.5s-2.5,1.1-2.5,2.5S1282,600.7,1283.4,600.7z"/>
			<path class="st4" d="M1197,552c1.4,0,2.5-1.1,2.5-2.5c0-1.4-1.1-2.5-2.5-2.5s-2.5,1.1-2.5,2.5C1194.5,550.9,1195.6,552,1197,552z
				"/>
			<path class="st4" d="M1188.1,496.3c1.4,0,2.5-1.1,2.5-2.5c0-1.4-1.1-2.5-2.5-2.5s-2.5,1.1-2.5,2.5
				C1185.6,495.2,1186.7,496.3,1188.1,496.3z"/>
			<path class="st4" d="M1122.8,587.1c1.4,0,2.5-1.1,2.5-2.5c0-1.4-1.1-2.5-2.5-2.5s-2.5,1.1-2.5,2.5
				C1120.3,586,1121.4,587.1,1122.8,587.1z"/>
			<path class="st4" d="M1075.2,565.9c1.4,0,2.5-1.1,2.5-2.5c0-1.4-1.1-2.5-2.5-2.5s-2.5,1.1-2.5,2.5
				C1072.7,564.8,1073.9,565.9,1075.2,565.9z"/>
			<path class="st4" d="M1158.8,653.1c1.4,0,2.5-1.1,2.5-2.5s-1.1-2.5-2.5-2.5s-2.5,1.1-2.5,2.5S1157.5,653.1,1158.8,653.1z"/>
			<path class="st4" d="M1057.2,647.8c1.4,0,2.5-1.1,2.5-2.5s-1.1-2.5-2.5-2.5s-2.5,1.1-2.5,2.5S1055.8,647.8,1057.2,647.8z"/>
			<path class="st4" d="M1133.8,750.5c1.4,0,2.5-1.1,2.5-2.5s-1.1-2.5-2.5-2.5s-2.5,1.1-2.5,2.5S1132.4,750.5,1133.8,750.5z"/>
			<path class="st4" d="M1099.8,730.2c1.4,0,2.5-1.1,2.5-2.5s-1.1-2.5-2.5-2.5c-1.4,0-2.5,1.1-2.5,2.5S1098.4,730.2,1099.8,730.2z"
				/>
			<path class="st4" d="M1068.4,731.2c1.4,0,2.5-1.1,2.5-2.5c0-1.4-1.1-2.5-2.5-2.5c-1.4,0-2.5,1.1-2.5,2.5
				C1065.9,730.1,1067.1,731.2,1068.4,731.2z"/>
			<path class="st4" d="M982.8,703.1c1.4,0,2.5-1.1,2.5-2.5s-1.1-2.5-2.5-2.5c-1.4,0-2.5,1.1-2.5,2.5S981.4,703.1,982.8,703.1z"/>
			<path class="st4" d="M929.3,785.5c1.4,0,2.5-1.1,2.5-2.5c0-1.4-1.1-2.5-2.5-2.5c-1.4,0-2.5,1.1-2.5,2.5
				C926.8,784.4,927.9,785.5,929.3,785.5z"/>
			<path class="st4" d="M994.3,797.2c1.4,0,2.5-1.1,2.5-2.5s-1.1-2.5-2.5-2.5s-2.5,1.1-2.5,2.5S992.9,797.2,994.3,797.2z"/>
			<path class="st4" d="M1038,854.3c1.4,0,2.5-1.1,2.5-2.5c0-1.4-1.1-2.5-2.5-2.5s-2.5,1.1-2.5,2.5
				C1035.5,853.2,1036.6,854.3,1038,854.3z"/>
			<path class="st4" d="M1030.8,793.9c1.4,0,2.5-1.1,2.5-2.5s-1.1-2.5-2.5-2.5s-2.5,1.1-2.5,2.5S1029.5,793.9,1030.8,793.9z"/>
			<path class="st4" d="M1079.7,814.5c1.4,0,2.5-1.1,2.5-2.5c0-1.4-1.1-2.5-2.5-2.5s-2.5,1.1-2.5,2.5
				C1077.2,813.4,1078.3,814.5,1079.7,814.5z"/>
			<path class="st4" d="M1079.3,858.2c1.4,0,2.5-1.1,2.5-2.5s-1.1-2.5-2.5-2.5s-2.5,1.1-2.5,2.5S1077.9,858.2,1079.3,858.2z"/>
			<path class="st4" d="M955.9,882.1c1.4,0,2.5-1.1,2.5-2.5s-1.1-2.5-2.5-2.5c-1.4,0-2.5,1.1-2.5,2.5S954.5,882.1,955.9,882.1z"/>
			<path class="st4" d="M954.8,819.8c1.4,0,2.5-1.1,2.5-2.5s-1.1-2.5-2.5-2.5c-1.4,0-2.5,1.1-2.5,2.5S953.4,819.8,954.8,819.8z"/>
			<path class="st4" d="M995.3,924.8c1.4,0,2.5-1.1,2.5-2.5c0-1.4-1.1-2.5-2.5-2.5s-2.5,1.1-2.5,2.5
				C992.8,923.7,993.9,924.8,995.3,924.8z"/>
			<path class="st4" d="M1215.2,741.7c1.4,0,2.5-1.1,2.5-2.5s-1.1-2.5-2.5-2.5s-2.5,1.1-2.5,2.5S1213.8,741.7,1215.2,741.7z"/>
			<path class="st4" d="M1262.8,641c1.4,0,2.5-1.1,2.5-2.5s-1.1-2.5-2.5-2.5c-1.4,0-2.5,1.1-2.5,2.5S1261.4,641,1262.8,641z"/>
			<path class="st4" d="M1237.9,622c1.4,0,2.5-1.1,2.5-2.5s-1.1-2.5-2.5-2.5s-2.5,1.1-2.5,2.5S1236.5,622,1237.9,622z"/>
			<path class="st4" d="M1228.9,569.4c1.4,0,2.5-1.1,2.5-2.5c0-1.4-1.1-2.5-2.5-2.5s-2.5,1.1-2.5,2.5
				C1226.4,568.3,1227.5,569.4,1228.9,569.4z"/>
			<path class="st4" d="M1215.9,827.5c1.4,0,2.5-1.1,2.5-2.5c0-1.4-1.1-2.5-2.5-2.5s-2.5,1.1-2.5,2.5
				C1213.4,826.4,1214.6,827.5,1215.9,827.5z"/>
			<path class="st3" d="M1188.1,493.8l-112.9,69.6"/>
			<path class="st3" d="M1133.8,748l-34-20.3"/>
		</g>
		<g class="st5">
			<path class="st3" d="M969.5,709l65.7-30.1"/>
			<path class="st3" d="M1083.1,674.7l-48,4.2"/>
			<path class="st3" d="M1040.3,762.2L969.5,709"/>
			<path class="st3" d="M1104.7,713l-64.4,49.2"/>
			<path class="st3" d="M1083.1,674.7l21.6,38.3"/>
			<path class="st3" d="M969.5,709l135.2,4"/>
			<path class="st3" d="M1035.1,678.8l43.7-79.7"/>
			<path class="st3" d="M1083.1,674.7l-4.2-75.6"/>
			<path class="st3" d="M1137.4,669.6l-58.6-70.5"/>
			<path class="st3" d="M1083.1,674.7l54.3-5.1"/>
			<path class="st3" d="M1078.8,599.1l93.1,41.2"/>
			<path class="st3" d="M1187.6,667.5l-15.6-27.2"/>
			<path class="st3" d="M1137.4,669.6l50.2-2.1"/>
			<path class="st3" d="M1175.6,719.5l-38.2-49.9"/>
			<path class="st3" d="M1104.7,713l70.9,6.5"/>
			<path class="st3" d="M1040.3,762.2l61.2,13.8"/>
			<path class="st3" d="M1175.6,719.5l-74.1,56.5"/>
			<path class="st3" d="M1104.7,713l-3.2,63"/>
			<path class="st3" d="M1175.6,719.5l96.9-50.1"/>
			<path class="st3" d="M1333.2,589.1l-60.7,80.2"/>
			<path class="st3" d="M1254.8,565.9l17.8,103.5"/>
			<path class="st3" d="M1333.2,589.1l-78.5-23.3"/>
			<path class="st3" d="M1172,640.3l82.8-74.5"/>
			<path class="st3" d="M1187.6,667.5l84.9,1.9"/>
			<path class="st3" d="M1172,640.3l100.6,29"/>
			<path class="st3" d="M1175.6,719.5l12-52"/>
			<path class="st3" d="M1333.2,589.1l31.1,124.3"/>
			<path class="st3" d="M1272.5,669.3l91.8,44.1"/>
			<path class="st3" d="M1254.8,565.9l31.7-80.1"/>
			<path class="st3" d="M1333.2,589.1l-46.8-103.4"/>
			<path class="st3" d="M1347,498.9l-60.5-13.2"/>
			<path class="st3" d="M1333.2,589.1l13.7-90.2"/>
			<path class="st3" d="M1364.3,713.5L1347,498.9"/>
			<path class="st3" d="M1407.8,551l-60.9-52.1"/>
			<path class="st3" d="M1175.6,719.5l104.7,24.7"/>
			<path class="st3" d="M1272.5,669.3l7.8,74.8"/>
			<path class="st3" d="M1364.3,713.5l-84,30.7"/>
			<path class="st3" d="M1175.6,719.5l22.7,28.4"/>
			<path class="st3" d="M1101.5,776l96.8-28.2"/>
			<path class="st3" d="M1185,802.7l13.3-54.8"/>
			<path class="st3" d="M1101.5,776l83.5,26.7"/>
			<path class="st3" d="M1280.3,744.1l-95.3,58.6"/>
			<path class="st3" d="M1198.3,747.8l82-3.7"/>
			<path class="st3" d="M1356.8,621l29.3,11.2"/>
			<path class="st3" d="M1316,782l50,15.6"/>
			<path class="st3" d="M1280.3,744.1L1316,782"/>
			<path class="st3" d="M1364.3,713.5L1316,782"/>
			<path class="st3" d="M1347,498.9l47.5,5"/>
			<path class="st4" d="M1079.6,602.3c1.4,0,2.5-1.1,2.5-2.5c0-1.4-1.1-2.5-2.5-2.5s-2.5,1.1-2.5,2.5
				C1077.1,601.1,1078.2,602.3,1079.6,602.3z"/>
			<path class="st4" d="M1035.1,681.3c1.4,0,2.5-1.1,2.5-2.5c0-1.4-1.1-2.5-2.5-2.5s-2.5,1.1-2.5,2.5
				C1032.6,680.2,1033.7,681.3,1035.1,681.3z"/>
			<path class="st4" d="M1083.1,677.2c1.4,0,2.5-1.1,2.5-2.5s-1.1-2.5-2.5-2.5c-1.4,0-2.5,1.1-2.5,2.5S1081.7,677.2,1083.1,677.2z"
				/>
			<path class="st4" d="M970.9,711.4c1.4,0,2.5-1.1,2.5-2.5c0-1.4-1.1-2.5-2.5-2.5s-2.5,1.1-2.5,2.5
				C968.4,710.3,969.5,711.4,970.9,711.4z"/>
			<path class="st4" d="M1040.3,764.7c1.4,0,2.5-1.1,2.5-2.5s-1.1-2.5-2.5-2.5s-2.5,1.1-2.5,2.5S1038.9,764.7,1040.3,764.7z"/>
			<path class="st4" d="M1104.7,715.5c1.4,0,2.5-1.1,2.5-2.5s-1.1-2.5-2.5-2.5s-2.5,1.1-2.5,2.5S1103.3,715.5,1104.7,715.5z"/>
			<path class="st4" d="M1101.5,778.5c1.4,0,2.5-1.1,2.5-2.5c0-1.4-1.1-2.5-2.5-2.5s-2.5,1.1-2.5,2.5
				C1099,777.4,1100.1,778.5,1101.5,778.5z"/>
			<path class="st4" d="M1137.4,672.1c1.4,0,2.5-1.1,2.5-2.5s-1.1-2.5-2.5-2.5s-2.5,1.1-2.5,2.5S1136,672.1,1137.4,672.1z"/>
			<path class="st4" d="M1198.3,750.3c1.4,0,2.5-1.1,2.5-2.5c0-1.4-1.1-2.5-2.5-2.5s-2.5,1.1-2.5,2.5
				C1195.8,749.2,1196.9,750.3,1198.3,750.3z"/>
			<path class="st4" d="M1185,805.2c1.4,0,2.5-1.1,2.5-2.5c0-1.4-1.1-2.5-2.5-2.5s-2.5,1.1-2.5,2.5
				C1182.5,804,1183.6,805.2,1185,805.2z"/>
			<path class="st4" d="M1280.3,746.6c1.4,0,2.5-1.1,2.5-2.5c0-1.4-1.1-2.5-2.5-2.5s-2.5,1.1-2.5,2.5
				C1277.8,745.5,1278.9,746.6,1280.3,746.6z"/>
			<path class="st4" d="M1316,784.5c1.4,0,2.5-1.1,2.5-2.5c0-1.4-1.1-2.5-2.5-2.5s-2.5,1.1-2.5,2.5
				C1313.5,783.4,1314.6,784.5,1316,784.5z"/>
			<path class="st4" d="M1272.5,671.8c1.4,0,2.5-1.1,2.5-2.5s-1.1-2.5-2.5-2.5s-2.5,1.1-2.5,2.5S1271.1,671.8,1272.5,671.8z"/>
			<path class="st4" d="M1333.2,591.6c1.4,0,2.5-1.1,2.5-2.5c0-1.4-1.1-2.5-2.5-2.5s-2.5,1.1-2.5,2.5
				C1330.7,590.5,1331.8,591.6,1333.2,591.6z"/>
			<path class="st4" d="M1356.8,623.5c1.4,0,2.5-1.1,2.5-2.5c0-1.4-1.1-2.5-2.5-2.5s-2.5,1.1-2.5,2.5
				C1354.3,622.4,1355.4,623.5,1356.8,623.5z"/>
			<path class="st4" d="M1254.8,568.4c1.4,0,2.5-1.1,2.5-2.5c0-1.4-1.1-2.5-2.5-2.5s-2.5,1.1-2.5,2.5
				C1252.3,567.2,1253.4,568.4,1254.8,568.4z"/>
			<path class="st4" d="M1172,642.8c1.4,0,2.5-1.1,2.5-2.5c0-1.4-1.1-2.5-2.5-2.5c-1.4,0-2.5,1.1-2.5,2.5
				C1169.5,641.7,1170.6,642.8,1172,642.8z"/>
			<path class="st4" d="M1187.6,670c1.4,0,2.5-1.1,2.5-2.5s-1.1-2.5-2.5-2.5s-2.5,1.1-2.5,2.5S1186.2,670,1187.6,670z"/>
			<path class="st4" d="M1175.6,722c1.4,0,2.5-1.1,2.5-2.5s-1.1-2.5-2.5-2.5s-2.5,1.1-2.5,2.5S1174.2,722,1175.6,722z"/>
			<path class="st4" d="M1287.2,488.9c1.4,0,2.5-1.1,2.5-2.5c0-1.4-1.1-2.5-2.5-2.5s-2.5,1.1-2.5,2.5
				C1284.7,487.8,1285.8,488.9,1287.2,488.9z"/>
			<path class="st3" d="M1185,802.7l131-20.7"/>
			<path class="st3" d="M1333.2,589.1l23.5,31.9"/>
		</g>
	</g>
</g>
</svg>
