<svg width="131" height="84" viewBox="0 0 131 84" fill="none" xmlns="http://www.w3.org/2000/svg">
<path d="M118.217 75.1252C118.209 75.1252 118.209 75.1252 118.201 75.1252L89.1451 74.76C88.4697 74.7527 87.9327 74.256 87.9409 73.6498C87.949 73.0508 88.4942 72.5687 89.1614 72.5687C89.1695 72.5687 89.1695 72.5687 89.1776 72.5687L116.199 72.9047L79.8856 9.32768L55.9801 50.5242L69.9996 72.8828C70.2111 73.2261 70.2111 73.6425 69.9833 73.9785C69.7636 74.3145 69.3649 74.5117 68.9337 74.5117C68.9255 74.5117 68.9255 74.5117 68.9174 74.5117L41.4969 74.1684C41.0738 74.1611 40.6832 73.9639 40.4635 73.6352C40.2439 73.3065 40.2357 72.9047 40.431 72.5687L53.2055 50.5607L41.5132 31.9054L13.8323 73.2846C13.4824 73.8032 12.7339 73.9712 12.1561 73.6571C11.5784 73.343 11.3913 72.671 11.7412 72.1524L40.4961 29.159C40.7158 28.8303 41.1145 28.6258 41.5457 28.6258C41.5539 28.6258 41.5539 28.6258 41.562 28.6258C41.9932 28.6331 42.3919 28.8449 42.6116 29.1809L54.5562 48.2306L78.8197 6.42785C79.0231 6.06994 79.4462 5.84351 79.9019 5.84351C80.3575 5.84351 80.7725 6.07724 80.984 6.44246L119.299 73.5329C119.495 73.8762 119.478 74.2852 119.251 74.6139C119.031 74.928 118.632 75.1252 118.217 75.1252ZM43.5229 72.0063L66.8425 72.2985L54.6376 52.8397L43.5229 72.0063Z" fill="#99C7DE"/>
<path d="M80.8945 78.1566C78.2013 78.1566 76.0125 76.1917 76.0125 73.774C76.0125 71.3562 78.2013 69.3914 80.8945 69.3914C83.5878 69.3914 85.7765 71.3562 85.7765 73.774C85.7765 76.1917 83.5878 78.1566 80.8945 78.1566ZM80.8945 71.5827C79.552 71.5827 78.4535 72.5687 78.4535 73.774C78.4535 74.9792 79.552 75.9653 80.8945 75.9653C82.2371 75.9653 83.3355 74.9792 83.3355 73.774C83.3355 72.5687 82.2452 71.5827 80.8945 71.5827Z" fill="#99C7DE"/>
</svg>
