<svg width="542" height="469" viewBox="0 0 542 469" fill="none" xmlns="http://www.w3.org/2000/svg">
<path d="M147.272 444.94L135.91 435.154L107.72 407.014L100.897 404.161L94.8326 399.049L67.5147 388.269L59.4196 377.834L54.0083 379.632L44.2924 376.537L37.4694 370.596L33.8009 361.536C33.8009 361.536 30.4722 357.292 28.9386 357.143C27.405 356.987 23.3966 353.126 23.1439 353.665C22.8912 354.204 20.7563 355.306 19.3098 355.158C17.8633 355.009 8.40013 354.775 8.40013 354.775C8.40013 354.775 5.75984 351.828 8.40013 349.843C11.0404 347.857 15.1359 348.998 15.1359 348.998L19.0136 347.357L12.8355 343.613L13.0882 338.219L19.824 337.914L20.9742 339.368L26.2635 339.673L29.7141 341.932L45.2683 342.542L48.5099 338.454L49.4074 325.681L57.8859 322.125L59.2889 321.398L64.2732 305.225L66.1031 304.232L69.0832 304.615L70.7911 306.069L71.131 309.704L73.1787 309.055L73.5185 302.059L76.3331 299.918C76.3331 299.918 78.2502 300.566 78.468 300.566C78.6771 300.566 81.1519 302.786 81.1519 302.786L84.559 304.928C84.559 304.928 87.2428 305.084 87.5042 305.116C87.7656 305.147 89.4648 303.857 89.4648 303.857L89.7611 302.255L70.4948 285.644L62.9051 285.379L56.2565 271.731C56.2565 271.731 57.0233 271.16 57.2324 271.16C57.4415 271.16 60.6831 272.536 60.6831 272.536L66.3906 272.723L69.7977 271.918L73.0829 269.394H76.6207H79.4788L79.6879 271.653L90.1271 271.879L91.5736 269.659L90.4669 267.744L86.7548 265.868L82.1539 266.056L83.7311 262.421C83.7311 262.421 85.4391 260.78 85.5611 260.662C85.6918 260.545 90.9723 260.397 91.103 260.397C91.2338 260.397 95.0678 260.397 95.0678 260.397L95.4948 259.06L108.322 252.979L111.136 251.947L115.737 250.649L119.998 249.805L120.172 248.312L117.489 247.124L118.081 237.681L112.539 237.337L110.753 238.94L108.2 239.245L106.875 238.096L100.819 243.333L92.384 244.365L90.4234 245.936L88.1665 244.708L84.2888 244.404L80.6639 245.279L78.3634 245.357L78.9995 240.691L81.4743 238.744C81.4743 238.744 81.9012 235.266 81.9012 235.039C81.9012 234.813 79.8099 231.678 79.8099 231.678C79.8099 231.678 80.7074 225.409 80.7859 225.253C80.873 225.096 82.4938 219.672 82.4938 219.672L89.0553 217.874C89.0553 217.874 95.2334 216.92 95.4948 216.764C95.7475 216.608 99.5032 214.818 99.5032 214.818L100.357 213.285C100.357 213.285 101.804 209.236 102.065 208.853C102.318 208.47 104.496 206.712 104.496 206.712L114.813 207.017L118.822 205.641L141.025 206.211L144.519 196.73L146.096 191.188L152.187 183.277L151.551 179.338L145.8 164.314C145.8 164.314 143.839 161.328 143.63 161.328C143.421 161.328 139.029 160.984 139.029 160.984L142.82 152.034L143.883 150.197L146.479 151.8L148.693 152.871C148.693 152.871 150.523 151.612 150.784 151.456C151.037 151.299 153.381 147.368 153.381 147.368V143.967L152.527 143.053L147.159 144.241L144.475 144.163L140.641 138.464L141.966 137.433L145.887 136.932L149.294 136.205L158.923 125.536L159.48 117.696L152.875 111.849L154.627 108.902C154.627 108.902 157.99 107.182 158.121 107.143C158.252 107.104 158.461 104.696 158.461 104.47C158.461 104.243 157.093 101.64 157.093 101.64L159.263 101.906L163.315 104.087L168.639 106.111L173.327 104.962L174.817 103.047L177.204 102.516L178.267 101.14L183.722 100.796L184.315 98.7323H188.619L194.754 90.3215L196.505 84.928L199.791 81.4496L206.012 78.3151L208.531 75.5637C208.531 75.5637 208.487 74.3755 208.531 74.0707C208.574 73.7658 206.361 71.7022 206.361 71.7022C206.361 71.7022 205.298 70.5923 205.298 70.475C205.298 70.3578 213.733 59.4613 213.733 59.4613L208.531 50.9334L213.349 46.345L201.925 35.8316L198.562 34.7998L209.263 31.0556L210.753 24.9351L211.99 23.0982L222.734 20.6516C222.734 20.6516 226.403 15.2581 226.403 15.0705C226.403 14.8829 229.086 9.29398 229.086 9.29398L232.921 7.69157L234.323 9.9115L239.996 11.6702C239.996 11.6702 245.285 13.046 245.451 13.046C245.617 13.046 248.562 12.0923 248.815 12.0923C249.067 12.0923 259.768 11.4045 259.768 11.4045L262.539 9.45813L266.286 6.0188H272.211C272.211 6.0188 277.283 9.15328 277.326 9.57538C277.37 9.99748 281.718 13.3586 281.718 13.3586L286.362 13.9683C286.362 13.9683 291.05 19.7449 291.181 19.7761C291.312 19.8152 304.435 17.4077 304.653 17.2513C304.871 17.095 305.08 13.8511 305.08 13.8511L313.698 14.1481L315.275 11.4748L320.216 11.5139L320.982 15.1487L327.544 14.195C327.544 14.195 328.18 11.2091 328.18 10.9824C328.18 10.7557 330.995 8.8797 330.995 8.8797C330.995 8.8797 339.351 9.68482 339.778 9.68482C340.205 9.68482 343.316 12.7411 343.569 12.7411C343.821 12.7411 354.356 10.5603 354.356 10.5603L357.981 13.3508L360.456 13.2727L362.286 10.787L366.416 17.0559C366.416 17.0559 369.057 16.8996 369.396 16.9778C369.736 17.0559 371.104 21.3395 371.104 21.3395L372.934 21.6443L370.338 23.4421L374.982 27.3427L374.729 36.5585L370.468 42.2569L370.555 46.5795L378.267 44.0547L384.149 46.001L388.366 43.2496L389.003 37.9342L399.869 36.2146L407.842 41.4908L409.079 43.1714L407.293 46.2668L407.807 48.9088L416.033 48.987V46.7671L418.76 46.6107L419.274 48.1428L422.429 48.0646L423.919 42.3663L427.16 41.6393L427.587 37.7388L430.489 39.4194L433.469 39.3803L440.545 42.3663V47.2204L443.142 51.1991L448.213 50.2846L454.435 50.1673L454.687 53.9897L456.09 58.2732L459.541 60.2586L460.848 63.1117L459.367 69.6386L461.868 74.6335L454.138 85.1313L446.976 89.618L442.54 92.776L441.408 103.383L438.793 110.317L439.7 119.697L444.135 123.37L448.344 130.507L447.211 136.315L436.754 146L432.659 152.323L429.025 158.952L426.977 166.088L426.411 170.474L430.158 171.287L435.839 174.343L445.39 178.423L451.184 184.747L452.892 190.25L455.28 190.961L456.073 192.188L456.186 193.72L453.006 195.151L450.618 197.801L452.326 202.491L453.807 206.673L457.328 210.753L460.622 212.082L462.783 205.352L475.4 208.611L491.085 208.814L501.315 218.601L507.232 227.465L515.527 228.278L515.98 233.476L518.255 241.222L527.692 257.332L531.325 263.656L527.692 270.793L518.717 270.691L514.168 266.712L511.327 270.793L516.216 273.849L531.334 283.635L533.042 287.411V290.569V295.36L529.748 298.933L519.405 310.15L519.632 316.473L518.385 318.615L512.364 312.393L510.543 312.698L509.062 319.53L507.58 324.016C507.58 324.016 501.899 325.447 501.899 325.134C501.899 324.829 492.81 322.789 492.81 322.789L490.083 323.907L483.948 323.399L480.655 326.971L473.605 329.316L469.17 336.148L469.056 338.391C469.056 338.391 465.763 340.533 465.649 340.939C465.536 341.346 463.488 345.629 463.488 345.629L462.695 350.726L459.175 352.969L456.787 357.456L454.513 363.264L454.4 369.181L450.418 372.644L447.35 369.384L445.529 372.745L442.915 372.237L437.687 371.628L432.232 369.994L425.069 363.569L392.331 362.553L380.393 350.726L361.415 341.956L347.316 335.335C347.316 335.335 329.696 328.91 329.583 328.3C329.47 327.69 322.873 318.412 322.873 318.412L312.87 309.032L293.438 307.703L286.842 301.176L276.725 296.486L269.562 295.47L267.968 300.465L259.445 304.139L253.651 307.093L249.215 304.952L248.649 299.347L242.053 301.59L240.118 311.174L236.938 308.625L222.621 308.321L208.531 307.304L207.284 310.056L198.649 309.853L199.329 315.559L203.076 318.31C203.076 318.31 202.283 320.147 201.708 320.35C201.133 320.554 198.64 320.757 198.64 320.757L199.547 324.016L197.159 325.752L194.771 323.712L192.95 322.484L190.676 323.602L186.354 323.704L188.402 337.977L191.809 341.236L191.922 349.6L204.54 350.312L210.901 362.037L218.97 362.85L217.724 373.863L211.014 377.435L213.515 384.064L223.405 390.388L222.037 394.773L220.442 395.078L223.736 399.869L222.368 404.559L218.848 409.656L214.186 413.736L209.297 415.675L203.616 415.573L201.908 410.172L195.198 409.46L191.103 409.257L188.419 417.41L180.803 426.688L178.982 437.186H170.913L163.977 435.044L157.956 435.146L151.246 435.756L151.586 440.649L148.518 444.112L147.272 444.94Z" stroke="white" stroke-miterlimit="10"/>
<path d="M430.367 156.529L421.819 154.145L413.933 148.986L406.003 148.259L401.063 151.815L393.943 158.811L386.911 162.141L374.512 165.62L366.626 170.435L361.85 177.931L360.909 182.402L358.435 184.083L356.518 192.188L352.213 194.479C352.213 194.479 341.939 194.401 341.939 194.252C341.939 194.096 341.382 186.451 341.382 186.451L333.713 182.894V191.266L338.698 194.784L336.197 202.788L330.515 205.844L323.466 203.601L318.691 210.331L311.641 212.168L307.093 214.818V221.548V227.465H303.686L301.864 225.487L290.502 228.684L284.14 226.847L283.008 222.564L274.146 225.48L272.098 219.297L264.369 203.796L261.188 202.78L255.733 195.847H235.5V191.36L238.454 188.46L238.907 184.833L237.312 181.777L237.992 170.356L243.22 168.723L248.222 167.496L253.903 165.049L261.633 163.415L263.907 161.375L262.539 156.279L265.719 150.776L262.539 142.826L255.036 139.152L252.535 140.168L249.581 136.495L250.714 133.845L235.482 131.601L239.116 127.521L235.482 124.871L237.983 120.588L235.482 118.548L241.39 98.9746L227.753 85.9208H222.525L216.617 83.0677V78.1745L213.663 77.1583L211.162 71.6554L206.64 68.6772" stroke="white" stroke-miterlimit="10"/>
<path d="M361.336 181.558L367.854 184.848L372.717 191.5H377.23L383.626 196.933L391.983 195.252V206.571L401.193 217.968L411.589 226.988L416.277 229.208L420.878 228.7L428.633 222.712L433.574 219.726L437.748 220.571L436.894 222.939L433.487 224.924C433.487 224.924 428.119 227.676 427.945 227.91C427.77 228.145 426.324 232.272 426.324 232.272C426.324 232.272 431.186 241.066 431.186 241.371C431.186 241.676 437.748 252.689 437.748 252.689L439.029 253.987L442.95 255.058C442.95 255.058 444.571 256.66 444.571 257.583C444.571 258.505 444.998 261.866 444.998 261.866L450.627 260.568L453.694 264.242L454.888 266.916L449.947 271.348L443.978 275.709L443.551 279.454L444.231 282.44L431.448 283.284L427.866 287.333C427.866 287.333 425.313 290.467 426.333 291.007C427.352 291.546 429.234 293.531 429.574 293.531C429.914 293.531 435.282 292.844 435.97 292.844C436.65 292.844 440.406 293 440.406 293L439.299 299.808C439.299 299.808 439.891 300.801 441.512 300.801C443.133 300.801 446.714 300.801 446.714 300.801H449.189C449.189 300.801 449.869 303.021 449.869 303.404C449.869 303.787 448.762 307.226 448.762 307.226C448.762 307.226 446.889 312.198 446.714 312.502C446.54 312.807 443.56 324.736 443.56 324.736L442.453 329.629L446.967 328.863C446.967 328.863 452.596 328.941 453.276 328.863C453.956 328.785 459.75 327.182 460.012 326.948C460.264 326.721 462.399 326.791 462.399 326.791L466.068 330.387L467.854 334.436L469.44 335.741" stroke="white" stroke-miterlimit="10"/>
<path d="M306.796 227.262L309.01 231.952L310.378 236.36L312.478 238.862L317.366 238.502L317.567 232.866C317.567 232.866 320.12 230.341 320.242 230.341C320.364 230.341 324.189 229.958 324.189 229.958L324.729 226.113L326.577 222.822L328.903 226.238L330.925 227.105L332.093 230.842L330.533 257.489L321.322 264.219L316.547 266.822L315.867 271.715L310.752 274.928L315.867 278.602L315.188 285.941L317.741 290.069H313.994L310.587 285.019L307.685 286.856L302.23 297.252L294.214 298.933L288.759 295.415L274.608 283.182H271L263.175 285.324L255.507 281.197L251.071 278.14L246.976 277.679L243.229 276.303L237.094 278.594C237.094 278.594 236.415 282.111 237.094 282.572C237.774 283.034 239.996 287.317 239.996 287.317L242.724 290.069L236.798 291.444L232.328 291.905L230.62 296.799L226.359 298.94L220.39 297.408L219.71 298.94L220.73 302.614L220.53 308.172" stroke="white" stroke-miterlimit="10"/>
<path d="M198.806 310.04L196.322 305.35L192.689 302.255L190.476 298.761C190.476 298.761 189.796 296.338 189.935 296.158C190.075 295.978 191.669 293.789 191.669 293.789L187.574 293.946L185.953 295.986C185.953 295.986 183.792 295.759 183.705 295.728C183.618 295.704 180.751 293.993 180.751 293.993L177.344 293.406L163.419 292.742L161.232 287.137C161.232 287.137 161.999 284.433 162.025 284.363C162.051 284.284 159.864 281.15 159.864 281.15L157.816 278.781L153.102 278.25L151.228 276.264L153.703 273.411C153.703 273.411 154.444 268.925 154.182 268.495C153.93 268.065 152.448 265.563 152.309 265.54C152.17 265.517 146.54 264.594 145.8 264.727C145.059 264.852 125.113 264.117 124.799 264.242C124.486 264.367 120.878 265.415 120.704 265.642C120.53 265.868 116.922 272.012 116.844 272.09C116.765 272.169 114.517 275.663 114.23 275.733C113.942 275.811 107.354 274.662 107.241 274.764C107.128 274.865 105.167 274.865 104.74 274.865C104.313 274.865 101.246 273.13 101.298 272.95C101.359 272.77 102.318 268.901 102.353 268.768C102.379 268.643 103.093 264.485 103.093 264.485C103.093 264.485 103.18 262.929 103.093 262.906C103.006 262.882 96.0786 262.96 95.5645 262.906C95.0504 262.851 94.2574 261.858 94.2574 261.858V260.608" stroke="white" stroke-miterlimit="10"/>
<g filter="url(#filter0_d_192_23)">
<path d="M136.354 252.22C140.421 252.22 143.717 249.263 143.717 245.615C143.717 241.967 140.421 239.01 136.354 239.01C132.287 239.01 128.991 241.967 128.991 245.615C128.991 249.263 132.287 252.22 136.354 252.22Z" fill="#FFA500"/>
</g>
<path d="M124.057 230V221.273H127.006C127.69 221.273 128.25 221.396 128.685 221.643C129.122 221.888 129.446 222.219 129.656 222.636C129.866 223.054 129.972 223.52 129.972 224.034C129.972 224.548 129.866 225.016 129.656 225.436C129.449 225.857 129.128 226.192 128.693 226.442C128.259 226.689 127.702 226.812 127.023 226.812H124.909V225.875H126.989C127.457 225.875 127.834 225.794 128.118 225.632C128.402 225.47 128.608 225.251 128.736 224.976C128.866 224.697 128.932 224.384 128.932 224.034C128.932 223.685 128.866 223.372 128.736 223.097C128.608 222.821 128.401 222.605 128.114 222.449C127.827 222.29 127.446 222.21 126.972 222.21H125.114V230H124.057ZM134.126 230.136C133.536 230.136 133.017 229.996 132.571 229.714C132.128 229.433 131.781 229.04 131.531 228.534C131.284 228.028 131.161 227.437 131.161 226.761C131.161 226.08 131.284 225.484 131.531 224.976C131.781 224.467 132.128 224.072 132.571 223.791C133.017 223.51 133.536 223.369 134.126 223.369C134.717 223.369 135.234 223.51 135.678 223.791C136.124 224.072 136.47 224.467 136.717 224.976C136.967 225.484 137.092 226.08 137.092 226.761C137.092 227.437 136.967 228.028 136.717 228.534C136.47 229.04 136.124 229.433 135.678 229.714C135.234 229.996 134.717 230.136 134.126 230.136ZM134.126 229.233C134.575 229.233 134.945 229.118 135.234 228.888C135.524 228.658 135.739 228.355 135.878 227.98C136.017 227.605 136.087 227.199 136.087 226.761C136.087 226.324 136.017 225.916 135.878 225.538C135.739 225.161 135.524 224.855 135.234 224.622C134.945 224.389 134.575 224.273 134.126 224.273C133.678 224.273 133.308 224.389 133.018 224.622C132.729 224.855 132.514 225.161 132.375 225.538C132.236 225.916 132.166 226.324 132.166 226.761C132.166 227.199 132.236 227.605 132.375 227.98C132.514 228.355 132.729 228.658 133.018 228.888C133.308 229.118 133.678 229.233 134.126 229.233ZM141.287 230.136C140.673 230.136 140.145 229.991 139.701 229.702C139.258 229.412 138.917 229.013 138.679 228.504C138.44 227.996 138.321 227.415 138.321 226.761C138.321 226.097 138.443 225.51 138.687 225.001C138.934 224.49 139.278 224.091 139.718 223.804C140.162 223.514 140.679 223.369 141.27 223.369C141.73 223.369 142.145 223.455 142.514 223.625C142.883 223.795 143.186 224.034 143.422 224.341C143.657 224.648 143.804 225.006 143.86 225.415H142.855C142.778 225.116 142.608 224.852 142.343 224.622C142.082 224.389 141.73 224.273 141.287 224.273C140.895 224.273 140.551 224.375 140.255 224.58C139.963 224.781 139.734 225.067 139.569 225.436C139.407 225.803 139.326 226.233 139.326 226.727C139.326 227.233 139.406 227.673 139.565 228.048C139.727 228.423 139.954 228.714 140.247 228.922C140.542 229.129 140.889 229.233 141.287 229.233C141.548 229.233 141.785 229.188 141.998 229.097C142.211 229.006 142.392 228.875 142.539 228.705C142.687 228.534 142.792 228.33 142.855 228.091H143.86C143.804 228.477 143.663 228.825 143.439 229.135C143.217 229.442 142.923 229.686 142.556 229.868C142.193 230.047 141.77 230.136 141.287 230.136ZM144.815 224.392V223.455H150.133V224.392H147.985V230H146.98V224.392H144.815ZM153.919 230.136C153.328 230.136 152.81 229.996 152.364 229.714C151.921 229.433 151.574 229.04 151.324 228.534C151.077 228.028 150.953 227.437 150.953 226.761C150.953 226.08 151.077 225.484 151.324 224.976C151.574 224.467 151.921 224.072 152.364 223.791C152.81 223.51 153.328 223.369 153.919 223.369C154.51 223.369 155.027 223.51 155.471 223.791C155.917 224.072 156.263 224.467 156.51 224.976C156.76 225.484 156.885 226.08 156.885 226.761C156.885 227.437 156.76 228.028 156.51 228.534C156.263 229.04 155.917 229.433 155.471 229.714C155.027 229.996 154.51 230.136 153.919 230.136ZM153.919 229.233C154.368 229.233 154.738 229.118 155.027 228.888C155.317 228.658 155.532 228.355 155.671 227.98C155.81 227.605 155.88 227.199 155.88 226.761C155.88 226.324 155.81 225.916 155.671 225.538C155.532 225.161 155.317 224.855 155.027 224.622C154.738 224.389 154.368 224.273 153.919 224.273C153.471 224.273 153.101 224.389 152.811 224.622C152.522 224.855 152.307 225.161 152.168 225.538C152.029 225.916 151.959 226.324 151.959 226.761C151.959 227.199 152.029 227.605 152.168 227.98C152.307 228.355 152.522 228.658 152.811 228.888C153.101 229.118 153.471 229.233 153.919 229.233ZM158.42 230V223.455H161.097C161.801 223.455 162.361 223.614 162.776 223.932C163.19 224.25 163.398 224.67 163.398 225.193C163.398 225.591 163.28 225.899 163.044 226.118C162.808 226.334 162.506 226.48 162.136 226.557C162.378 226.591 162.612 226.676 162.839 226.812C163.07 226.949 163.26 227.136 163.411 227.375C163.561 227.611 163.636 227.901 163.636 228.244C163.636 228.58 163.551 228.879 163.381 229.143C163.21 229.408 162.966 229.616 162.648 229.77C162.33 229.923 161.949 230 161.506 230H158.42ZM159.375 229.08H161.506C161.852 229.08 162.124 228.997 162.32 228.832C162.516 228.668 162.614 228.443 162.614 228.159C162.614 227.821 162.516 227.555 162.32 227.362C162.124 227.166 161.852 227.068 161.506 227.068H159.375V229.08ZM159.375 226.199H161.097C161.366 226.199 161.598 226.162 161.791 226.088C161.984 226.011 162.132 225.903 162.234 225.764C162.339 225.622 162.392 225.455 162.392 225.261C162.392 224.986 162.277 224.77 162.047 224.614C161.817 224.455 161.5 224.375 161.097 224.375H159.375V226.199ZM168.909 225.79V226.727H165.091V225.79H168.909ZM175.059 226.267V227.205H171.445V226.267H175.059ZM171.684 223.455V230H170.678V223.455H171.684ZM175.826 223.455V230H174.82V223.455H175.826ZM179.589 230.153C179.174 230.153 178.798 230.075 178.46 229.919C178.121 229.76 177.853 229.531 177.654 229.233C177.455 228.932 177.356 228.568 177.356 228.142C177.356 227.767 177.43 227.463 177.577 227.23C177.725 226.994 177.923 226.81 178.17 226.676C178.417 226.543 178.69 226.443 178.988 226.378C179.289 226.31 179.592 226.256 179.896 226.216C180.293 226.165 180.616 226.126 180.863 226.101C181.113 226.072 181.295 226.026 181.408 225.96C181.525 225.895 181.583 225.781 181.583 225.619V225.585C181.583 225.165 181.468 224.838 181.238 224.605C181.011 224.372 180.665 224.256 180.202 224.256C179.722 224.256 179.346 224.361 179.073 224.571C178.8 224.781 178.609 225.006 178.498 225.244L177.543 224.903C177.714 224.506 177.941 224.196 178.225 223.974C178.512 223.75 178.825 223.594 179.163 223.506C179.504 223.415 179.839 223.369 180.168 223.369C180.379 223.369 180.62 223.395 180.893 223.446C181.168 223.494 181.434 223.595 181.69 223.749C181.948 223.902 182.163 224.134 182.333 224.443C182.504 224.753 182.589 225.168 182.589 225.688V230H181.583V229.114H181.532C181.464 229.256 181.35 229.408 181.191 229.57C181.032 229.732 180.82 229.869 180.556 229.983C180.292 230.097 179.969 230.153 179.589 230.153ZM179.742 229.25C180.14 229.25 180.475 229.172 180.748 229.016C181.023 228.859 181.231 228.658 181.37 228.411C181.512 228.163 181.583 227.903 181.583 227.631V226.71C181.54 226.761 181.447 226.808 181.302 226.851C181.16 226.891 180.995 226.926 180.808 226.957C180.623 226.986 180.442 227.011 180.266 227.034C180.093 227.054 179.952 227.071 179.844 227.085C179.583 227.119 179.339 227.175 179.112 227.251C178.887 227.325 178.705 227.437 178.566 227.588C178.43 227.736 178.362 227.937 178.362 228.193C178.362 228.543 178.491 228.807 178.749 228.986C179.011 229.162 179.342 229.25 179.742 229.25ZM188.174 225.79V226.727H184.356V225.79H188.174ZM189.33 232.114V229.062H189.893C190.086 228.886 190.268 228.638 190.438 228.317C190.612 227.993 190.758 227.561 190.877 227.021C190.999 226.479 191.08 225.79 191.12 224.955L191.308 221.273H196.489V229.062H197.495V232.097H196.489V230H190.336V232.114H189.33ZM191.154 229.062H195.484V222.21H192.262L192.126 224.955C192.092 225.591 192.032 226.168 191.947 226.685C191.862 227.199 191.752 227.655 191.619 228.053C191.485 228.447 191.33 228.784 191.154 229.062ZM201.615 230.136C201.024 230.136 200.505 229.996 200.059 229.714C199.616 229.433 199.27 229.04 199.02 228.534C198.772 228.028 198.649 227.437 198.649 226.761C198.649 226.08 198.772 225.484 199.02 224.976C199.27 224.467 199.616 224.072 200.059 223.791C200.505 223.51 201.024 223.369 201.615 223.369C202.206 223.369 202.723 223.51 203.166 223.791C203.612 224.072 203.958 224.467 204.206 224.976C204.456 225.484 204.581 226.08 204.581 226.761C204.581 227.437 204.456 228.028 204.206 228.534C203.958 229.04 203.612 229.433 203.166 229.714C202.723 229.996 202.206 230.136 201.615 230.136ZM201.615 229.233C202.064 229.233 202.433 229.118 202.723 228.888C203.012 228.658 203.227 228.355 203.366 227.98C203.505 227.605 203.575 227.199 203.575 226.761C203.575 226.324 203.505 225.916 203.366 225.538C203.227 225.161 203.012 224.855 202.723 224.622C202.433 224.389 202.064 224.273 201.615 224.273C201.166 224.273 200.797 224.389 200.507 224.622C200.217 224.855 200.002 225.161 199.863 225.538C199.724 225.916 199.654 226.324 199.654 226.761C199.654 227.199 199.724 227.605 199.863 227.98C200.002 228.355 200.217 228.658 200.507 228.888C200.797 229.118 201.166 229.233 201.615 229.233ZM210.496 226.267V227.205H206.883V226.267H210.496ZM207.121 223.455V230H206.116V223.455H207.121ZM211.263 223.455V230H210.258V223.455H211.263ZM213.513 232.455C213.343 232.455 213.191 232.44 213.058 232.412C212.924 232.386 212.832 232.361 212.781 232.335L213.036 231.449C213.281 231.511 213.496 231.534 213.684 231.517C213.871 231.5 214.038 231.416 214.183 231.266C214.33 231.118 214.465 230.878 214.587 230.545L214.775 230.034L212.354 223.455H213.445L215.252 228.67H215.32L217.127 223.455H218.218L215.44 230.955C215.315 231.293 215.16 231.572 214.975 231.794C214.79 232.018 214.576 232.185 214.332 232.293C214.09 232.401 213.817 232.455 213.513 232.455Z" fill="white"/>
<defs>
<filter id="filter0_d_192_23" x="113.991" y="224.01" width="44.7264" height="43.2102" filterUnits="userSpaceOnUse" color-interpolation-filters="sRGB">
<feFlood flood-opacity="0" result="BackgroundImageFix"/>
<feColorMatrix in="SourceAlpha" type="matrix" values="0 0 0 0 0 0 0 0 0 0 0 0 0 0 0 0 0 0 127 0" result="hardAlpha"/>
<feOffset/>
<feGaussianBlur stdDeviation="7.5"/>
<feComposite in2="hardAlpha" operator="out"/>
<feColorMatrix type="matrix" values="0 0 0 0 1 0 0 0 0 0.647059 0 0 0 0 0 0 0 0 0.59 0"/>
<feBlend mode="normal" in2="BackgroundImageFix" result="effect1_dropShadow_192_23"/>
<feBlend mode="normal" in="SourceGraphic" in2="effect1_dropShadow_192_23" result="shape"/>
</filter>
</defs>
</svg>
