<svg width="97" height="66" viewBox="0 0 97 66" fill="none" xmlns="http://www.w3.org/2000/svg">
<path d="M38.2856 65.051C37.9887 65.051 37.7067 64.9501 37.4988 64.7736L0.326593 33.1947C0.118762 33.0181 0 32.7785 0 32.5263C0 32.2741 0.118762 32.0344 0.326593 31.8579L37.4988 0.279026C37.9368 -0.0930088 38.6419 -0.0930088 39.0724 0.279026L76.2446 31.8579C76.6826 32.2299 76.6826 32.829 76.2446 33.1947L39.0724 64.7736C38.8646 64.9501 38.5751 65.051 38.2856 65.051ZM2.68697 32.5263L38.2856 62.7683L73.8843 32.5263L38.2856 2.28423L2.68697 32.5263Z" fill="#99C7DE"/>
<path d="M67.0852 57.9383C66.8031 57.9383 66.5136 57.8437 66.2984 57.6608L56.6342 49.4508C56.1963 49.0788 56.1963 48.4798 56.6342 48.114C57.0721 47.742 57.7773 47.742 58.2078 48.114L67.0852 55.6556L94.3112 32.5264L67.0852 9.39715L39.0724 33.1948C38.6345 33.5668 37.9293 33.5668 37.4988 33.1948C37.0609 32.8228 37.0609 32.2237 37.4988 31.858L66.2984 7.39194C66.7363 7.01991 67.4414 7.01991 67.872 7.39194L96.6715 31.858C97.1095 32.23 97.1095 32.8291 96.6715 33.1948L67.872 57.6608C67.6567 57.85 67.3672 57.9383 67.0852 57.9383Z" fill="#99C7DE"/>
<path d="M31.1302 38.7869C28.6734 38.7869 26.6767 37.3128 26.6767 35.4989C26.6767 33.685 28.6734 32.2109 31.1302 32.2109C33.5871 32.2109 35.5838 33.685 35.5838 35.4989C35.5838 37.3128 33.5871 38.7869 31.1302 38.7869ZM31.1302 33.8549C29.9055 33.8549 28.9035 34.5947 28.9035 35.4989C28.9035 36.4031 29.9055 37.1429 31.1302 37.1429C32.355 37.1429 33.357 36.4031 33.357 35.4989C33.357 34.5892 32.355 33.8549 31.1302 33.8549Z" fill="#99C7DE"/>
</svg>
